HIERARCHY
ROOT Hips
{
    OFFSET 0.000000 0.000000 0.000000
    CHANNELS 6 Xposition Yposition Zposition Zrotation Xrotation Yrotation
    JOINT Spine
    {
        OFFSET -0.000000 7.236184 0.000000
        CHANNELS 3 Zrotation Xrotation Yrotation
        JOINT Spine1
        {
            OFFSET -0.000000 20.420147 0.000000
            CHANNELS 3 Zrotation Xrotation Yrotation
            JOINT Neck
            {
                OFFSET -0.000000 20.336288 1.848754
                CHANNELS 3 Zrotation Xrotation Yrotation
                JOINT Head
                {
                    OFFSET -0.000000 12.354461 -1.764923
                    CHANNELS 3 Zrotation Xrotation Yrotation
                    End Site
                    {
                        OFFSET -0.000000 22.061537 0.000000
                    }
                }
            }
            JOINT LeftShoulder
            {
                OFFSET 3.573296 18.396038 -0.314103
                CHANNELS 3 Zrotation Xrotation Yrotation
                JOINT LeftArm
                {
                    OFFSET 10.880760 0.000000 0.000000
                    CHANNELS 3 Zrotation Xrotation Yrotation
                    JOINT LeftForeArm
                    {
                        OFFSET 27.185530 0.000000 0.000000
                        CHANNELS 3 Zrotation Xrotation Yrotation
                        JOINT LeftHand
                        {
                            OFFSET 27.825975 0.000000 0.000000
                            CHANNELS 3 Zrotation Xrotation Yrotation
                            End Site
                            {
                                OFFSET 13.236923 0.000000 0.000000
                            }
                        }
                    }
                }
            }
            JOINT RightShoulder
            {
                OFFSET -3.474926 18.396038 -0.314103
                CHANNELS 3 Zrotation Xrotation Yrotation
                JOINT RightArm
                {
                    OFFSET -10.880760 0.000000 0.000000
                    CHANNELS 3 Zrotation Xrotation Yrotation
                    JOINT RightForeArm
                    {
                        OFFSET -27.185530 0.000000 0.000000
                        CHANNELS 3 Zrotation Xrotation Yrotation
                        JOINT RightHand
                        {
                            OFFSET -27.825975 0.000000 0.000000
                            CHANNELS 3 Zrotation Xrotation Yrotation
                            End Site
                            {
                                OFFSET -13.236923 0.000000 0.000000
                            }
                        }
                    }
                }
            }
        }
    }
    JOINT LeftUpLeg
    {
        OFFSET 8.824615 0.000000 0.000000
        CHANNELS 3 Zrotation Xrotation Yrotation
        JOINT LeftLeg
        {
            OFFSET -0.000000 -35.111282 0.000000
            CHANNELS 3 Zrotation Xrotation Yrotation
            JOINT LeftFoot
            {
                OFFSET -0.000000 -42.324711 0.000000
                CHANNELS 3 Zrotation Xrotation Yrotation
                JOINT LeftToeBase
                {
                    OFFSET -0.000000 -5.735999 13.236923
                    CHANNELS 3 Zrotation Xrotation Yrotation
                    End Site
                    {
                        OFFSET -0.000000 0.000000 3.529846
                    }
                }
            }
        }
    }
    JOINT RightUpLeg
    {
        OFFSET -8.824615 0.000000 0.000000
        CHANNELS 3 Zrotation Xrotation Yrotation
        JOINT RightLeg
        {
            OFFSET -0.000000 -35.111282 0.000000
            CHANNELS 3 Zrotation Xrotation Yrotation
            JOINT RightFoot
            {
                OFFSET -0.000000 -42.324711 0.000000
                CHANNELS 3 Zrotation Xrotation Yrotation
                JOINT RightToeBase
                {
                    OFFSET -0.000000 -5.735999 13.236923
                    CHANNELS 3 Zrotation Xrotation Yrotation
                    End Site
                    {
                        OFFSET -0.000000 0.000000 3.529846
                    }
                }
            }
        }
    }
}
MOTION
Frames:    9
Frame Time:    0.008333
-1.284380    82.211006    93.686424    0.974373    -4.436073    -172.208862    2.521933    -14.411774    1.692433    -8.892341    4.196591    1.700081    11.441058    8.605871    -10.231263    18.774960    11.844457    -10.769837    2.641344    17.694239    -3.494221    -48.938835    43.880222    -32.193298    -4.453829    -4.000704    -12.513714    16.905355    -3.863414    4.212220    -13.965667    -1.089836    -0.103232    17.317211    -25.805023    19.478504    -15.689877    -18.973066    5.969321    -38.034653    -14.222367    -11.949570    4.905729    -3.086672    -2.237549    -2.198430    8.634948    -1.986289    -0.188625    -10.861130    -9.440373    -0.774343    1.761924    0.855654    -1.231689    2.683020    -3.134782    12.172109    8.504949    -7.718389    0.000000    0.000000    0.000000    0.000000    0.000000    0.000000    
-1.288845    82.210777    93.692688    0.976070    -4.426106    -172.229111    2.536522    -14.416406    1.706828    -8.918966    4.218258    1.715167    11.426283    8.599978    -10.230588    18.792925    11.843441    -10.767847    2.635844    17.696793    -3.479100    -48.925510    43.867065    -32.181301    -4.473296    -4.075209    -12.506343    16.854046    -3.938295    4.235230    -13.975993    -1.076124    -0.057533    17.289841    -25.543028    19.679913    -15.939204    -18.908241    6.458223    -38.045086    -14.032785    -12.075134    4.909934    -3.063010    -2.235337    -2.207879    8.607585    -1.957182    -0.182750    -10.846678    -9.450816    -0.775705    1.762464    0.857158    -1.230194    2.687045    -3.139372    12.163717    8.505609    -7.718678    0.000000    0.000000    0.000000    0.000000    0.000000    0.000000    
-1.294005    82.210609    93.699478    0.978129    -4.414473    -172.249313    2.552519    -14.419906    1.724417    -8.952248    4.239770    1.733592    11.413180    8.595529    -10.233660    18.817848    11.841702    -10.769351    2.630192    17.695196    -3.465583    -48.906868    43.856781    -32.174328    -4.491367    -4.145870    -12.491677    16.797543    -4.009385    4.256271    -13.994644    -1.069122    -0.003954    17.252899    -25.263529    19.889374    -16.212881    -18.837603    6.978294    -38.070171    -13.831057    -12.189939    4.913663    -3.039546    -2.233035    -2.216510    8.583100    -1.929422    -0.176490    -10.832991    -9.459952    -0.777223    1.762490    0.858834    -1.229232    2.691496    -3.141965    12.156438    8.507555    -7.719961    0.000000    0.000000    0.000000    0.000000    0.000000    0.000000    
-1.299732    82.210503    93.706734    0.980600    -4.401362    -172.268387    2.569391    -14.422267    1.745063    -8.992207    4.261024    1.755221    11.402723    8.592224    -10.241371    18.849779    11.838958    -10.775368    2.624514    17.690683    -3.452673    -48.881592    43.848255    -32.174946    -4.507837    -4.210033    -12.470456    16.741350    -4.073867    4.275227    -14.021245    -1.068633    0.056701    17.207741    -24.971582    20.104612    -16.507582    -18.764505    7.521772    -38.110027    -13.622218    -12.291338    4.916852    -3.016927    -2.230376    -2.223919    8.562057    -1.904614    -0.170087    -10.820304    -9.467678    -0.779065    1.761940    0.860871    -1.228675    2.696068    -3.142671    12.150447    8.511202    -7.722488    0.000000    0.000000    0.000000    0.000000    0.000000    0.000000    
-1.305933    82.210442    93.714478    0.983563    -4.386951    -172.285385    2.586625    -14.423293    1.768682    -9.038761    4.281725    1.779998    11.395228    8.589890    -10.254598    18.889223    11.834926    -10.786784    2.619453    17.685081    -3.439025    -48.847767    43.840748    -32.186646    -4.522618    -4.266251    -12.443680    16.689442    -4.130117    4.292265    -14.055682    -1.074142    0.123504    17.155342    -24.668398    20.325418    -16.822533    -18.693064    8.083973    -38.163754    -13.411408    -12.377604    4.919676    -2.995574    -2.227447    -2.230181    8.544558    -1.883694    -0.163633    -10.808633    -9.473977    -0.781295    1.760865    0.863337    -1.228528    2.700650    -3.141496    12.146139    8.516422    -7.726322    0.000000    0.000000    0.000000    0.000000    0.000000    0.000000    
-1.312538    82.210457    93.722794    0.987199    -4.371455    -172.299561    2.603911    -14.422983    1.795206    -9.092164    4.301714    1.807958    11.391102    8.588307    -10.274014    18.936335    11.829311    -10.804280    2.615442    17.682283    -3.422560    -48.801086    43.832489    -32.215721    -4.535835    -4.313739    -12.412056    16.644690    -4.177243    4.307751    -14.097701    -1.085270    0.196442    17.095533    -24.352921    20.552759    -17.158663    -18.627449    8.662920    -38.230431    -13.203104    -12.447585    4.922244    -2.975946    -2.223991    -2.235107    8.530638    -1.867565    -0.157134    -10.797905    -9.478934    -0.783844    1.759359    0.866156    -1.228455    2.704916    -3.139186    12.143306    8.523409    -7.732067    0.000000    0.000000    0.000000    0.000000    0.000000    0.000000    
-1.319367    82.210548    93.731667    0.991838    -4.355362    -172.309967    2.620666    -14.421382    1.824254    -9.151427    4.320642    1.838660    11.390978    8.586987    -10.299848    18.989607    11.822056    -10.828265    2.612966    17.687067    -3.400903    -48.736740    43.822102    -32.270000    -4.547165    -4.351528    -12.376398    16.609785    -4.214165    4.321602    -14.146364    -1.101387    0.274046    17.028784    -24.027309    20.784374    -17.513172    -18.572969    9.248432    -38.308304    -13.004508    -12.500638    4.924852    -2.958866    -2.219846    -2.238472    8.520648    -1.857101    -0.150571    -10.788320    -9.482679    -0.786657    1.757664    0.869267    -1.227862    2.708541    -3.136596    12.141656    8.531920    -7.740016    0.000000    0.000000    0.000000    0.000000    0.000000    0.000000    
-1.326365    82.210670    93.741180    0.997787    -4.338745    -172.316055    2.636633    -14.418351    1.855815    -9.216535    4.338310    1.872162    11.395411    8.585466    -10.332516    19.048325    11.813158    -10.859300    2.613087    17.704838    -3.371742    -48.649349    43.807461    -32.358078    -4.557123    -4.379824    -12.337038    16.586367    -4.241047    4.333925    -14.201241    -1.122064    0.356344    16.954454    -23.687950    21.021152    -17.889006    -18.533031    9.840402    -38.397049    -12.817931    -12.538507    4.927951    -2.944509    -2.215096    -2.240473    8.514435    -1.852983    -0.143604    -10.779785    -9.484812    -0.789573    1.755571    0.872492    -1.226195    2.711574    -3.134636    12.140821    8.541704    -7.750288    0.000000    0.000000    0.000000    0.000000    0.000000    0.000000    
-1.333388    82.210831    93.751274    1.005338    -4.322071    -172.317230    2.651114    -14.414191    1.889592    -9.286152    4.354600    1.908193    11.405440    8.583175    -10.371918    19.109690    11.802653    -10.897503    2.616309    17.738438    -3.334734    -48.537331    43.787319    -32.483227    -4.565497    -4.398726    -12.294727    16.575476    -4.258053    4.344481    -14.260996    -1.146741    0.441913    16.873167    -23.336115    21.260405    -18.284155    -18.510567    10.431721    -38.496197    -12.646408    -12.564214    4.931898    -2.933367    -2.209858    -2.241186    8.511808    -1.855506    -0.136176    -10.772250    -9.485319    -0.792429    1.753034    0.875652    -1.222817    2.713752    -3.134306    12.140260    8.552539    -7.763368    0.000000    0.000000    0.000000    0.000000    0.000000    0.000000    
